<svg width="24" height="23" viewBox="0 0 24 23" fill="none" xmlns="http://www.w3.org/2000/svg">
<path d="M17.5 0.916534C16.3739 0.934049 15.2724 1.24839 14.3068 1.82781C13.3411 2.40722 12.5453 3.2312 12 4.21653C11.4546 3.2312 10.6589 2.40722 9.69323 1.82781C8.72753 1.24839 7.62604 0.934049 6.49999 0.916534C4.70493 0.994525 3.01369 1.77979 1.79577 3.10077C0.577848 4.42175 -0.0677617 6.17106 -1.11917e-05 7.96653C-1.11917e-05 12.5135 4.78599 17.4795 8.79999 20.8465C9.69621 21.5997 10.8293 22.0126 12 22.0126C13.1706 22.0126 14.3038 21.5997 15.2 20.8465C19.214 17.4795 24 12.5135 24 7.96653C24.0677 6.17106 23.4221 4.42175 22.2042 3.10077C20.9863 1.77979 19.295 0.994525 17.5 0.916534Z" fill="white"/>
</svg>
